<svg width="320" height="320" viewBox="0 0 320 320" fill="none" xmlns="http://www.w3.org/2000/svg">
  <defs>
    <linearGradient id="opeEducationalBook" x1="86" y1="98" x2="236" y2="228" gradientUnits="userSpaceOnUse">
      <stop offset="0" stop-color="#1D4ED8" />
      <stop offset="0.55" stop-color="#0EA5E9" />
      <stop offset="1" stop-color="#22C55E" />
    </linearGradient>
    <linearGradient id="opeEducationalBulb" x1="129" y1="117" x2="192" y2="198" gradientUnits="userSpaceOnUse">
      <stop offset="0" stop-color="#34D399" />
      <stop offset="1" stop-color="#84CC16" />
    </linearGradient>
    <filter id="opeEducationalShadow" x="18" y="18" width="284" height="284" filterUnits="userSpaceOnUse" color-interpolation-filters="sRGB">
      <feFlood flood-opacity="0" result="BackgroundImageFix" />
      <feColorMatrix in="SourceAlpha" type="matrix" values="0 0 0 0 0 0 0 0 0 0 0 0 0 0 0 0 0 0 127 0" result="hardAlpha" />
      <feOffset dx="0" dy="14" />
      <feGaussianBlur stdDeviation="12" />
      <feColorMatrix type="matrix" values="0 0 0 0 0.0588235 0 0 0 0 0.0941176 0 0 0 0 0.160784 0 0 0 0.18 0" />
      <feBlend mode="normal" in2="BackgroundImageFix" result="effect1_dropShadow_1_1" />
      <feBlend mode="normal" in="SourceGraphic" in2="effect1_dropShadow_1_1" result="shape" />
    </filter>
  </defs>
  <g filter="url(#opeEducationalShadow)">
    <rect x="34" y="34" width="252" height="252" rx="54" fill="#FFFFFF" />
    <rect x="34" y="34" width="252" height="252" rx="54" stroke="#E2E8F0" />
  </g>
  <rect x="86" y="112" width="150" height="101" rx="18" fill="url(#opeEducationalBook)" />
  <path d="M91 112C116 112 141 117 160 131C179 117 204 112 229 112V214C203 211 180 218 160 237C140 218 117 211 91 214V112Z" stroke="#FFFFFF" stroke-width="9" stroke-linejoin="round" />
  <path d="M160 131V237" stroke="#FFFFFF" stroke-width="9" stroke-linecap="round" />
  <path d="M91 214C117 211 140 218 160 237C180 218 203 211 229 214" stroke="#FFFFFF" stroke-width="9" stroke-linecap="round" stroke-linejoin="round" />
  <rect x="79" y="120" width="10" height="86" rx="5" fill="#4C1D95" opacity="0.45" />
  <rect x="231" y="120" width="10" height="86" rx="5" fill="#65A30D" opacity="0.3" />
  <circle cx="160" cy="149" r="33" fill="url(#opeEducationalBulb)" stroke="#FFFFFF" stroke-width="8" />
  <path d="M160 121C142.879 121 129 134.879 129 152C129 163.267 135.132 173.327 144.25 178.741C148.386 181.196 151 185.508 151 190.25V192H169V190.25C169 185.481 171.62 181.143 175.791 178.665C184.885 173.261 191 163.219 191 152C191 134.879 177.121 121 160 121Z" stroke="#FFFFFF" stroke-width="7" stroke-linecap="round" stroke-linejoin="round" />
  <path d="M150 201H170" stroke="#FFFFFF" stroke-width="7" stroke-linecap="round" />
  <path d="M152 212H168" stroke="#FFFFFF" stroke-width="7" stroke-linecap="round" />
  <path d="M156 145L160 149L165 138" stroke="#FFFFFF" stroke-width="6" stroke-linecap="round" stroke-linejoin="round" />
  <path d="M160 92V106" stroke="#BAE6FD" stroke-width="6" stroke-linecap="round" />
  <path d="M123 104L131 114" stroke="#DBEAFE" stroke-width="6" stroke-linecap="round" />
  <path d="M197 104L189 114" stroke="#DCFCE7" stroke-width="6" stroke-linecap="round" />
  <path d="M111 140H122" stroke="#FFFFFF" stroke-width="6" stroke-linecap="round" opacity="0.95" />
  <path d="M198 140H209" stroke="#FFFFFF" stroke-width="6" stroke-linecap="round" opacity="0.95" />
</svg>
